<svg width="130" height="58" viewBox="0 0 130 58" fill="none" xmlns="http://www.w3.org/2000/svg">
<g clip-path="url(#clip0_1_2)" filter="url(#filter0_d_1_2)">
<path d="M84.2244 31.0841C84.1122 31.0841 84.0561 31.0187 84.0561 30.8878C84.0561 30.7943 84.0841 30.6821 84.1402 30.5512C84.2898 30.2333 84.4581 29.7845 84.6451 29.2048C84.8508 28.6251 85.1033 28.1296 85.4025 27.7182C85.496 27.5125 85.6362 27.26 85.8232 26.9608C86.0289 26.6429 86.2253 26.2689 86.4123 25.8388V25.6986C86.4123 25.6425 86.4123 25.5957 86.4123 25.5583C86.431 25.5022 86.4497 25.4461 86.4684 25.39C86.5432 25.2404 86.6086 25.1376 86.6647 25.0815C86.7395 25.0254 86.8143 24.9225 86.8891 24.7729C86.8891 24.7355 86.8891 24.6981 86.8891 24.6607C86.9078 24.6233 86.9265 24.5859 86.9452 24.5485C86.9078 24.5859 86.8985 24.5579 86.9172 24.4644C86.8798 24.4644 86.9172 24.3709 87.0294 24.1839C87.1042 24.0156 87.1603 23.9221 87.1977 23.9034H87.2257C87.3005 23.7912 87.366 23.6977 87.4221 23.6229C87.4782 23.5294 87.4969 23.4733 87.4782 23.4546V23.3984C87.4782 23.2675 87.5156 23.146 87.5904 23.0338C87.6839 22.9216 87.768 22.8001 87.8428 22.6692C87.8989 22.5944 87.9457 22.5569 87.9831 22.5569C88.0205 22.5569 88.0392 22.5663 88.0392 22.585C88.0579 22.585 88.0766 22.585 88.0953 22.585C88.1514 22.585 88.1794 22.5383 88.1794 22.4448C88.1794 22.4074 88.1701 22.3606 88.1514 22.3045C88.1514 22.2484 88.142 22.183 88.1233 22.1082C88.142 22.0147 88.2168 21.9399 88.3477 21.8838L88.4319 21.8557C88.5254 21.463 88.6376 21.2012 88.7685 21.0703C88.8059 21.0329 88.8433 20.9955 88.8807 20.9581C88.9181 20.9207 88.9555 20.8833 88.9929 20.8459C89.2173 20.6028 89.3856 20.341 89.4978 20.0605C89.5352 19.9857 89.5819 19.9296 89.638 19.8922C89.7128 19.8361 89.7783 19.7707 89.8344 19.6959C89.8718 19.6398 89.8811 19.5837 89.8624 19.5276C89.8624 19.4528 89.8718 19.3873 89.8905 19.3312C89.984 19.1816 90.0494 19.0975 90.0868 19.0788C90.1242 19.0601 90.1616 19.0414 90.199 19.0227C90.2551 18.9853 90.3486 18.9011 90.4795 18.7702C90.5356 18.6767 90.5917 18.5832 90.6478 18.4897C90.7226 18.3962 90.7974 18.3027 90.8722 18.2092C90.9844 18.0783 91.106 17.9848 91.2369 17.9287C91.3678 17.8726 91.4987 17.7885 91.6296 17.6763C91.667 17.6389 91.6857 17.5828 91.6857 17.508C91.6857 17.4145 91.7044 17.349 91.7418 17.3116C92.3963 16.788 93.0975 16.3486 93.8455 15.9933C94.6122 15.638 95.2013 15.4603 95.6127 15.4603C95.7623 15.4603 95.9025 15.4697 96.0334 15.4884C96.183 15.5071 96.3233 15.5351 96.4542 15.5725H96.5103C96.6038 15.5725 96.6973 15.5912 96.7908 15.6286C96.8843 15.666 96.9684 15.7034 97.0432 15.7408C97.118 15.7408 97.2115 15.7595 97.3237 15.7969C97.4172 15.8343 97.4733 15.8904 97.492 15.9652C97.5107 16.04 97.492 16.0961 97.4359 16.1335C97.4172 16.1522 97.3892 16.1522 97.3518 16.1335C97.3144 16.1148 97.277 16.1055 97.2396 16.1055C97.2022 16.1055 97.1648 16.0868 97.1274 16.0493C97.09 16.012 97.0526 15.9839 97.0152 15.9652C96.9404 15.9652 96.8562 15.9746 96.7627 15.9933C96.6879 16.012 96.6038 16.0213 96.5103 16.0213H96.4261C96.2952 16.0213 96.2017 16.0026 96.1456 15.9652C96.1082 15.9091 96.0147 15.8998 95.8651 15.9372C95.8464 15.9372 95.7903 15.9465 95.6968 15.9652C95.6033 15.9839 95.5379 15.9933 95.5005 15.9933C94.8273 16.1616 94.2382 16.4421 93.7333 16.8348C93.2284 17.2088 92.7796 17.6295 92.3869 18.097C92.0129 18.5645 91.6483 19.0133 91.293 19.4434C91.1247 19.78 90.9564 20.0512 90.7881 20.2569C90.7694 20.2756 90.7507 20.2662 90.732 20.2288C90.7133 20.1914 90.6946 20.1914 90.6759 20.2288C90.6198 20.2849 90.573 20.3784 90.5356 20.5093C90.5169 20.6215 90.4795 20.715 90.4234 20.7898C90.4047 20.8085 90.386 20.7992 90.3673 20.7618C90.3486 20.7244 90.3206 20.7244 90.2832 20.7618C90.2645 20.7805 90.2364 20.8553 90.199 20.9862C90.1803 21.0984 90.1523 21.1732 90.1149 21.2106C89.8905 21.5098 89.6474 21.7996 89.3856 22.0801C89.1238 22.3606 88.862 22.6879 88.6002 23.0619C88.2262 23.6416 87.8709 24.2119 87.5343 24.7729C87.1977 25.3339 86.8424 25.951 86.4684 26.6242C86.3375 26.8486 86.2346 27.0543 86.1598 27.2413C86.1037 27.4096 86.0383 27.5686 85.9635 27.7182C85.9261 27.7743 85.9074 27.8491 85.9074 27.9426C85.9074 28.0735 85.9822 28.1389 86.1318 28.1389C86.244 28.1389 86.3562 28.1109 86.4684 28.0548L86.7489 27.9426C87.1977 27.5312 87.6652 27.1852 88.1514 26.9047C88.1701 26.9047 88.1794 26.9047 88.1794 26.9047C88.1981 26.886 88.2168 26.8767 88.2355 26.8767C88.2916 26.8767 88.329 26.9141 88.3477 26.9889C88.3664 27.045 88.3477 27.0917 88.2916 27.1291C87.7493 27.4283 87.2444 27.8117 86.7769 28.2792C86.7582 28.3166 86.7395 28.354 86.7208 28.3914C86.7021 28.4288 86.6741 28.4662 86.6367 28.5036C86.5993 28.541 86.5432 28.6064 86.4684 28.6999C86.4123 28.7934 86.3842 28.8495 86.3842 28.8682C86.3655 28.9243 86.3375 28.943 86.3001 28.9243C86.2814 28.9056 86.2253 28.9337 86.1318 29.0085C86.1131 29.0272 86.0944 29.0646 86.0757 29.1207C86.0757 29.1768 86.0663 29.2235 86.0476 29.2609C86.0289 29.317 85.9915 29.3638 85.9354 29.4012C85.898 29.4199 85.8793 29.4386 85.8793 29.4573C85.8606 29.5321 85.8232 29.5788 85.7671 29.5975C85.7297 29.5975 85.6923 29.6162 85.6549 29.6536C85.6362 29.6723 85.6362 29.7004 85.6549 29.7378C85.6736 29.7752 85.6643 29.8126 85.6269 29.85C85.6082 29.9061 85.5895 29.9341 85.5708 29.9341C85.5521 29.9154 85.524 29.9248 85.4866 29.9622C85.4118 30.037 85.3557 30.0744 85.3183 30.0744C85.2061 30.1118 85.1594 30.1398 85.1781 30.1585C85.2155 30.1772 85.2435 30.1959 85.2622 30.2146C85.2996 30.2146 85.2716 30.2427 85.1781 30.2988C85.1407 30.3175 85.1033 30.3736 85.0659 30.4671C85.0285 30.5419 84.9911 30.598 84.9537 30.6354C84.8976 30.6728 84.8415 30.7008 84.7854 30.7195C84.748 30.7382 84.7012 30.7756 84.6451 30.8317C84.4768 31 84.3366 31.0841 84.2244 31.0841ZM93.3365 22.2484C93.2804 22.2484 93.2243 22.2297 93.1682 22.1923C93.1308 22.1549 93.0747 22.1082 92.9999 22.0521C92.9625 22.0334 92.9157 22.0147 92.8596 21.996C92.8222 21.9586 92.8035 21.9025 92.8035 21.8277C92.7848 21.809 92.7474 21.7996 92.6913 21.7996C92.5978 21.7996 92.5511 21.7342 92.5511 21.6033C92.5511 21.4537 92.6259 21.3508 92.7755 21.2947L92.9157 21.1825V21.2106L93.0279 21.0703H93.084C93.1962 21.0703 93.271 21.0142 93.3084 20.902C93.3645 20.7898 93.4767 20.715 93.645 20.6776C93.7572 20.6402 93.8507 20.6496 93.9255 20.7057C94.0003 20.7618 94.0938 20.7898 94.206 20.7898C94.3182 20.7898 94.4398 20.7524 94.5707 20.6776L94.9914 20.5935C95.0475 20.5935 95.0756 20.6122 95.0756 20.6496C95.0756 20.687 95.0195 20.7337 94.9073 20.7898C94.8138 20.8459 94.7483 20.8927 94.7109 20.9301L94.6829 20.9581L94.6548 21.0142L94.5426 21.1545C94.4304 21.2854 94.2995 21.4443 94.1499 21.6313C94.019 21.7996 93.8788 21.9399 93.7292 22.0521C93.5609 22.183 93.43 22.2484 93.3365 22.2484ZM89.0729 31.0841C88.9607 31.0841 88.9046 31.0187 88.9046 30.8878C88.9046 30.7943 88.9326 30.6821 88.9887 30.5512C89.1383 30.2333 89.3066 29.7845 89.4936 29.2048C89.6993 28.6251 89.9518 28.1296 90.251 27.7182C90.4567 27.3068 90.6437 26.9047 90.812 26.512C90.999 26.1006 91.1766 25.6892 91.3449 25.2778C91.3449 25.2778 91.3262 25.2685 91.2888 25.2498C91.2701 25.2124 91.2608 25.175 91.2608 25.1376C91.1486 25.0628 91.027 24.9599 90.8961 24.829C90.7839 24.6794 90.7746 24.5298 90.8681 24.3802C90.9055 24.3428 90.9335 24.3241 90.9522 24.3241C90.9709 24.3241 90.9803 24.3241 90.9803 24.3241C90.9803 24.3054 90.9709 24.2961 90.9522 24.2961C90.9522 24.2774 90.9522 24.268 90.9522 24.268C90.9522 24.1932 90.9896 24.1465 91.0644 24.1278C91.1392 24.1091 91.1766 24.081 91.1766 24.0436C91.214 23.7818 91.4384 23.5855 91.8498 23.4546C92.2612 23.3237 92.6259 23.2582 92.9438 23.2582C93.2617 23.2582 93.4206 23.305 93.4206 23.3984C93.4206 23.4359 93.3645 23.5013 93.2523 23.5948C93.1962 23.6322 93.1027 23.7164 92.9718 23.8472C92.8409 23.9782 92.7194 24.1371 92.6072 24.3241L92.3828 24.6607C92.3641 24.6981 92.336 24.7449 92.2986 24.801C92.2799 24.8384 92.2519 24.8758 92.2145 24.9132C91.9153 25.4555 91.6722 25.9136 91.4852 26.2876C91.2982 26.6616 91.0738 27.1385 90.812 27.7182C90.7746 27.8304 90.7559 27.9052 90.7559 27.9426C90.7559 28.0735 90.8307 28.1389 90.9803 28.1389C91.0925 28.1389 91.2047 28.1109 91.3169 28.0548L91.5974 27.9426C92.0462 27.5312 92.5137 27.1852 92.9999 26.9047C93.0186 26.9047 93.0279 26.9047 93.0279 26.9047C93.0466 26.886 93.0653 26.8767 93.084 26.8767C93.1401 26.8767 93.1775 26.9141 93.1962 26.9889C93.2149 27.045 93.1962 27.0917 93.1401 27.1291C92.5978 27.4283 92.0929 27.8117 91.6254 28.2792C91.6067 28.3166 91.588 28.354 91.5693 28.3914C91.5506 28.4288 91.5226 28.4662 91.4852 28.5036C91.4478 28.541 91.3917 28.6064 91.3169 28.6999C91.2608 28.7934 91.2327 28.8495 91.2327 28.8682C91.214 28.9243 91.186 28.943 91.1486 28.9243C91.1299 28.9056 91.0738 28.9337 90.9803 29.0085C90.9616 29.0272 90.9429 29.0646 90.9242 29.1207C90.9242 29.1768 90.9148 29.2235 90.8961 29.2609C90.8774 29.317 90.84 29.3638 90.7839 29.4012C90.7465 29.4199 90.7278 29.4386 90.7278 29.4573C90.7091 29.5321 90.6717 29.5788 90.6156 29.5975C90.5782 29.5975 90.5408 29.6162 90.5034 29.6536C90.4847 29.6723 90.4847 29.7004 90.5034 29.7378C90.5221 29.7752 90.5128 29.8126 90.4754 29.85C90.4567 29.9061 90.438 29.9341 90.4193 29.9341C90.4006 29.9154 90.3725 29.9248 90.3351 29.9622C90.2603 30.037 90.2042 30.0744 90.1668 30.0744C90.0546 30.1118 90.0079 30.1398 90.0266 30.1585C90.064 30.1772 90.092 30.1959 90.1107 30.2146C90.1481 30.2146 90.1201 30.2427 90.0266 30.2988C89.9892 30.3175 89.9518 30.3736 89.9144 30.4671C89.877 30.5419 89.8396 30.598 89.8022 30.6354C89.7461 30.6728 89.69 30.7008 89.6339 30.7195C89.5965 30.7382 89.5497 30.7756 89.4936 30.8317C89.3253 31 89.1851 31.0841 89.0729 31.0841ZM93.7009 31.0841C93.5887 31.0841 93.5326 31.0187 93.5326 30.8878C93.5326 30.7943 93.5607 30.6821 93.6168 30.5512C93.7664 30.2333 93.944 29.7845 94.1497 29.2048C94.3554 28.6251 94.6079 28.1296 94.9071 27.7182L96.001 25.2778C96.001 25.2778 95.9823 25.2685 95.9449 25.2498C95.9075 25.2124 95.8888 25.175 95.8888 25.1376C95.7766 25.0628 95.6551 24.9599 95.5242 24.829C95.412 24.6794 95.4026 24.5298 95.4961 24.3802C95.5335 24.3428 95.5616 24.3241 95.5803 24.3241C95.599 24.3241 95.6083 24.3241 95.6083 24.3241V24.268C95.6083 24.1932 95.6364 24.1465 95.6925 24.1278C95.7673 24.1091 95.814 24.081 95.8327 24.0436C95.8701 23.7818 96.0852 23.5855 96.4779 23.4546C96.8893 23.3237 97.2539 23.2582 97.5718 23.2582C97.8897 23.2582 98.0487 23.305 98.0487 23.3984C98.0487 23.4546 97.9926 23.52 97.8804 23.5948C97.843 23.6322 97.7495 23.7164 97.5999 23.8472C97.469 23.9782 97.3474 24.1371 97.2352 24.3241L97.0389 24.6607L96.8425 24.9132C96.5433 25.4555 96.3002 25.9136 96.1132 26.2876C95.9262 26.6616 95.7018 27.1385 95.44 27.7182C95.3839 27.8304 95.3559 27.9239 95.3559 27.9987C95.3559 28.0922 95.3933 28.1389 95.4681 28.1389C95.5055 28.1389 95.5429 28.1296 95.5803 28.1109C95.6364 28.0735 95.6925 28.0454 95.7486 28.0267C95.8982 27.9332 96.0197 27.8491 96.1132 27.7743C96.2254 27.6808 96.347 27.5873 96.4779 27.4938C96.534 27.4377 96.5807 27.4377 96.6181 27.4938C96.6555 27.5312 96.6555 27.5873 96.6181 27.6621C96.5433 27.8117 96.4872 27.9052 96.4498 27.9426C96.4311 27.9613 96.4031 27.98 96.3657 27.9987C96.3283 28.0174 96.2441 28.1015 96.1132 28.2511L96.001 28.4755C95.9636 28.5129 95.9169 28.5877 95.8608 28.6999C95.8234 28.7934 95.8047 28.8495 95.8047 28.8682C95.8047 28.9056 95.786 28.9243 95.7486 28.9243C95.7112 28.9056 95.6551 28.9337 95.5803 29.0085C95.5616 29.0272 95.5522 29.0646 95.5522 29.1207C95.5709 29.1768 95.5616 29.2235 95.5242 29.2609C95.5055 29.317 95.4774 29.3638 95.44 29.4012C95.4026 29.4199 95.3839 29.4386 95.3839 29.4573C95.3652 29.5321 95.3278 29.5788 95.2717 29.5975C95.2343 29.5975 95.1969 29.6162 95.1595 29.6536C95.1408 29.6536 95.1315 29.6723 95.1315 29.7097C95.1315 29.8593 95.1128 29.9248 95.0754 29.9061C95.038 29.8874 95.0006 29.9061 94.9632 29.9622C94.9258 30.037 94.879 30.0744 94.8229 30.0744C94.7107 30.1118 94.664 30.1398 94.6827 30.1585C94.7014 30.1772 94.7294 30.1959 94.7668 30.2146C94.8042 30.2146 94.7762 30.2427 94.6827 30.2988C94.6266 30.3175 94.5798 30.3736 94.5424 30.4671C94.505 30.5419 94.4676 30.598 94.4302 30.6354C94.3928 30.6728 94.3461 30.7008 94.29 30.7195C94.2339 30.7382 94.1871 30.7756 94.1497 30.8317C93.9814 31 93.8318 31.0841 93.7009 31.0841ZM102.06 30.8598C101.985 30.8598 101.92 30.8598 101.863 30.8598C101.807 30.8411 101.751 30.8224 101.695 30.8037C101.508 30.7663 101.34 30.7102 101.19 30.6354C101.059 30.5606 100.947 30.4203 100.854 30.2146C100.835 30.1211 100.788 29.9996 100.713 29.85C100.657 29.7004 100.62 29.5601 100.601 29.4292C100.583 29.3357 100.573 29.2235 100.573 29.0926C100.554 28.9991 100.545 28.8776 100.545 28.728C100.508 28.541 100.489 28.3727 100.489 28.2231C100.508 28.0735 100.517 27.8958 100.517 27.6901C100.517 27.4844 100.526 27.3348 100.545 27.2413C100.583 27.073 100.601 26.9889 100.601 26.9889C100.601 26.9702 100.601 26.8767 100.601 26.7084C100.62 26.484 100.629 26.2502 100.629 26.0071C100.629 25.764 100.639 25.5677 100.657 25.4181C100.713 24.8571 100.601 24.5766 100.321 24.5766C100.209 24.5766 100.059 24.6233 99.8719 24.7168C99.8532 24.7729 99.8158 24.8103 99.7597 24.829C99.7223 24.829 99.6662 24.8477 99.5914 24.8851L99.4512 24.9693C99.4512 24.988 99.4325 24.9973 99.3951 24.9973C99.3577 24.9786 99.339 24.988 99.339 25.0254C99.3577 25.1002 99.3483 25.1469 99.3109 25.1656C99.2922 25.1843 99.2642 25.175 99.2268 25.1376L98.9182 25.362C98.9182 25.3807 98.8902 25.4181 98.8341 25.4742L98.806 25.5022C98.7312 25.577 98.6658 25.6144 98.6097 25.6144L98.5255 25.6986C98.5255 25.7173 98.5068 25.7547 98.4694 25.8108C98.4507 25.8482 98.404 25.8575 98.3292 25.8388L98.1889 25.9791C98.1141 26.0913 98.0487 26.1567 97.9926 26.1754C97.9552 26.1941 97.9084 26.2128 97.8523 26.2315L97.6279 26.512L97.5157 26.5401C97.5157 26.6149 97.4316 26.7271 97.2633 26.8767C97.1137 27.0263 97.0108 27.1291 96.9547 27.1852C96.8986 27.2413 96.8425 27.2694 96.7864 27.2694C96.749 27.2694 96.7303 27.2507 96.7303 27.2133C96.7303 27.1946 96.7771 27.1198 96.8706 26.9889C96.9454 26.9141 97.0576 26.7738 97.2072 26.5681C97.3755 26.3624 97.469 26.2689 97.4877 26.2876C97.5812 26.1941 97.6466 26.1006 97.684 26.0071C97.7214 25.8949 97.7869 25.8014 97.8804 25.7266C97.8804 25.7453 97.8804 25.764 97.8804 25.7827C97.8991 25.7827 97.9084 25.7827 97.9084 25.7827C97.9458 25.7827 97.9926 25.736 98.0487 25.6425C98.1048 25.5303 98.1422 25.4835 98.1609 25.5022L98.6377 25.0815C98.6377 25.0628 98.6845 25.0254 98.778 24.9693C98.8528 24.9319 98.8995 24.9132 98.9182 24.9132C98.9369 24.9132 98.9837 24.8571 99.0585 24.7449L99.2548 24.6046C99.2735 24.5672 99.2922 24.5766 99.3109 24.6327C99.3483 24.6701 99.3764 24.6794 99.3951 24.6607L99.4792 24.4644C99.5166 24.4083 99.5727 24.3615 99.6475 24.3241C99.741 24.268 99.8345 24.2119 99.928 24.1558C100.152 23.9314 100.321 23.8192 100.433 23.8192H100.545C100.788 23.7257 101.013 23.679 101.218 23.679C101.518 23.679 101.751 23.7912 101.92 24.0156C101.957 24.0717 101.994 24.1745 102.032 24.3241C102.069 24.3428 102.079 24.3709 102.06 24.4083C102.06 24.427 102.069 24.455 102.088 24.4924C102.107 24.5298 102.144 24.5766 102.2 24.6327C102.256 24.6701 102.284 24.7168 102.284 24.7729V24.829C102.284 24.9038 102.237 24.9693 102.144 25.0254C102.237 25.1002 102.275 25.1469 102.256 25.1656C102.256 25.1656 102.247 25.1937 102.228 25.2498L102.172 25.6425C102.153 25.7734 102.125 25.8762 102.088 25.951C102.05 26.0071 102.013 26.11 101.976 26.2596C102.05 26.3718 102.05 26.4466 101.976 26.484H101.92L101.892 26.5962C101.892 26.6336 101.91 26.671 101.948 26.7084L101.863 26.8767C101.882 26.858 101.892 26.858 101.892 26.8767C101.91 26.8767 101.92 26.8767 101.92 26.8767C101.901 26.9141 101.873 26.9889 101.835 27.101C101.798 27.1946 101.77 27.2694 101.751 27.3255C101.733 27.419 101.695 27.4657 101.639 27.4657C101.583 27.4657 101.564 27.5125 101.583 27.606C101.602 27.6247 101.611 27.6901 101.611 27.8023C101.63 27.8958 101.62 27.9426 101.583 27.9426L101.527 28.2792V28.3633C101.527 28.4568 101.508 28.5503 101.471 28.6438C101.452 28.7373 101.433 28.8308 101.415 28.9243C101.396 29.0178 101.377 29.1207 101.359 29.2329C101.359 29.3264 101.359 29.4199 101.359 29.5134C101.359 29.5882 101.359 29.6723 101.359 29.7658C101.377 29.8406 101.396 29.9154 101.415 29.9902C101.415 30.0089 101.443 30.065 101.499 30.1585C101.555 30.252 101.583 30.3081 101.583 30.3268L101.667 30.411C101.705 30.4297 101.761 30.4297 101.835 30.411C101.929 30.3923 101.994 30.4016 102.032 30.439C102.2 30.4577 102.415 30.3736 102.677 30.1866C102.957 29.9809 103.21 29.7565 103.434 29.5134C103.49 29.4573 103.546 29.4292 103.603 29.4292C103.64 29.4292 103.668 29.4573 103.687 29.5134C103.705 29.5695 103.687 29.6443 103.631 29.7378C103.331 30.1679 103.051 30.4671 102.789 30.6354C102.527 30.785 102.284 30.8598 102.06 30.8598ZM102.931 39.2186C102.314 39.2186 101.809 39.0971 101.416 38.854C101.023 38.6109 100.827 38.2556 100.827 37.7881C100.846 37.7694 100.864 37.6852 100.883 37.5356C100.902 37.4047 100.902 37.3206 100.883 37.2832L100.995 37.0588C101.07 36.9279 101.135 36.8437 101.192 36.8063H101.22V36.7783C101.22 36.7409 101.229 36.6941 101.248 36.638C101.266 36.6006 101.285 36.5726 101.304 36.5539L101.416 36.3575L101.612 36.2734H101.64V36.2453C101.622 36.1892 101.706 36.0677 101.893 35.8807C102.061 35.6937 102.257 35.4973 102.482 35.2916C102.706 35.0859 102.865 34.955 102.959 34.899L103.436 34.5062C103.492 34.4501 103.566 34.394 103.66 34.3379C103.735 34.3005 103.8 34.2725 103.856 34.2538C103.912 34.1977 103.969 34.1416 104.025 34.0855C104.099 34.0481 104.165 34.0107 104.221 33.9733C104.258 33.9359 104.305 33.8985 104.361 33.8611C104.436 33.8237 104.501 33.7956 104.558 33.7769C104.576 33.7395 104.623 33.7021 104.698 33.6647C104.735 33.6273 104.773 33.5993 104.81 33.5806C104.866 33.5619 104.904 33.5432 104.922 33.5245L105.511 33.1879C105.848 32.9822 106.063 32.8513 106.156 32.7952C106.25 32.7391 106.362 32.6736 106.493 32.5988C106.53 32.5614 106.577 32.524 106.633 32.4866C106.708 32.4679 106.699 32.4492 106.605 32.4305C106.194 32.2622 105.867 32.0752 105.623 31.8695L105.567 31.7854L105.511 31.7293C105.493 31.6732 105.465 31.6451 105.427 31.6451H105.399C105.343 31.6451 105.296 31.6264 105.259 31.589C105.184 31.5516 105.091 31.4862 104.978 31.3927C104.885 31.2992 104.819 31.2244 104.782 31.1683C104.763 31.1122 104.735 31.0561 104.698 31C104.66 30.9439 104.632 30.8785 104.614 30.8037C104.595 30.8037 104.567 30.7756 104.53 30.7195C104.492 30.6821 104.473 30.6167 104.473 30.5232C104.455 30.4858 104.445 30.4577 104.445 30.439C104.445 30.4016 104.436 30.3736 104.417 30.3549C104.399 30.3175 104.389 30.2707 104.389 30.2146C104.389 30.1585 104.389 30.1118 104.389 30.0744V29.9622C104.371 29.9061 104.361 29.8219 104.361 29.7097C104.361 29.5414 104.408 29.3638 104.501 29.1768C104.539 29.1394 104.558 29.1113 104.558 29.0926C104.632 28.9056 104.857 28.8121 105.231 28.8121C105.287 28.8121 105.343 28.8215 105.399 28.8402C105.474 28.8402 105.539 28.8402 105.595 28.8402H105.876C105.876 28.8402 105.885 28.8402 105.904 28.8402C105.923 28.8215 105.941 28.8121 105.96 28.8121C105.96 28.8121 105.969 28.8121 105.988 28.8121C106.007 28.7934 106.026 28.7841 106.044 28.7841L106.128 28.8121C106.147 28.8121 106.175 28.8215 106.213 28.8402C106.25 28.8402 106.278 28.8402 106.297 28.8402H106.381L106.269 28.7841V28.6999C106.269 28.6064 106.25 28.5223 106.213 28.4475C106.175 28.3727 106.138 28.3166 106.1 28.2792C106.138 28.2418 106.156 28.2044 106.156 28.167C106.156 28.1296 106.138 28.0828 106.1 28.0267C106.082 27.9519 106.063 27.8865 106.044 27.8304C106.119 27.793 106.138 27.7369 106.1 27.6621C106.1 27.6434 106.091 27.6153 106.072 27.5779C106.054 27.5405 106.044 27.5031 106.044 27.4657V27.101L106.269 26.7364C106.287 26.7177 106.287 26.6897 106.269 26.6523C106.269 26.5962 106.278 26.5494 106.297 26.512C106.315 26.4372 106.353 26.3718 106.409 26.3157C106.484 26.2596 106.53 26.1941 106.549 26.1193C106.568 26.1006 106.577 26.0352 106.577 25.923C106.689 25.8669 106.811 25.736 106.942 25.5303C106.961 25.5116 106.97 25.4742 106.97 25.4181C106.989 25.362 107.007 25.3246 107.026 25.3059C107.119 25.2124 107.222 25.1189 107.335 25.0254C107.447 24.9319 107.568 24.8197 107.699 24.6888C107.699 24.6327 107.652 24.5953 107.559 24.5766C107.465 24.5392 107.391 24.5018 107.335 24.4644C107.26 24.4083 107.166 24.3522 107.054 24.2961C106.961 24.2213 106.895 24.1839 106.858 24.1839C106.82 24.1839 106.792 24.1932 106.774 24.2119C106.774 24.2119 106.764 24.2119 106.745 24.2119C106.689 24.1184 106.624 24.0436 106.549 23.9875C106.493 23.9127 106.428 23.8473 106.353 23.7912C106.353 23.7538 106.362 23.7257 106.381 23.707C106.4 23.6696 106.409 23.6322 106.409 23.5948C106.409 23.5574 106.381 23.52 106.325 23.4826C106.287 23.4265 106.269 23.3704 106.269 23.3143C106.269 23.2769 106.306 23.1928 106.381 23.0619C106.456 22.931 106.512 22.8655 106.549 22.8655C106.624 22.8655 106.689 22.9123 106.745 23.0058C106.82 23.0993 106.858 23.1928 106.858 23.2863C106.895 23.305 106.932 23.3143 106.97 23.3143C107.026 23.3143 107.063 23.3237 107.082 23.3424C107.157 23.4359 107.288 23.5761 107.475 23.7631C107.662 23.9314 107.821 24.0343 107.952 24.0717C107.952 24.0904 107.989 24.081 108.064 24.0436C108.157 23.9875 108.232 23.9595 108.288 23.9595C108.326 23.9595 108.354 23.9501 108.372 23.9314C108.41 23.894 108.447 23.8753 108.485 23.8753C108.541 23.8753 108.569 23.894 108.569 23.9314C108.587 23.9501 108.615 23.9595 108.653 23.9595C108.728 23.9595 108.793 23.9127 108.849 23.8192C108.887 23.8005 108.924 23.7725 108.961 23.7351C109.018 23.6977 109.074 23.6696 109.13 23.6509C109.148 23.6509 109.186 23.6603 109.242 23.679C109.317 23.6977 109.373 23.707 109.41 23.707C109.504 23.707 109.579 23.6883 109.635 23.6509C109.709 23.6135 109.784 23.5948 109.859 23.5948C109.934 23.6322 109.981 23.6696 109.999 23.707C110.018 23.7257 110.046 23.7538 110.083 23.7912C110.177 23.866 110.27 23.9314 110.364 23.9875C110.457 24.0436 110.542 24.1371 110.616 24.268C110.654 24.2306 110.738 24.2119 110.869 24.2119C111.018 24.2119 111.196 24.2306 111.402 24.268C111.626 24.3054 111.776 24.3148 111.851 24.2961C111.888 24.2961 111.916 24.2961 111.935 24.2961C111.972 24.2774 112.019 24.268 112.075 24.268C112.168 24.268 112.206 24.2867 112.187 24.3241C112.168 24.3428 112.187 24.3522 112.243 24.3522C112.281 24.3522 112.365 24.3428 112.496 24.3241C112.645 24.2867 112.739 24.268 112.776 24.268C112.814 24.2867 112.832 24.3054 112.832 24.3241C112.851 24.3428 112.879 24.3615 112.916 24.3802C112.954 24.3802 113.029 24.3709 113.141 24.3522C113.272 24.3335 113.356 24.3241 113.393 24.3241C113.711 24.3428 114.001 24.3335 114.263 24.2961C114.543 24.24 114.843 24.2026 115.16 24.1839C115.235 24.2026 115.273 24.2493 115.273 24.3241C115.273 24.3989 115.235 24.4363 115.16 24.4363C115.142 24.4363 115.104 24.455 115.048 24.4924C114.992 24.5111 114.945 24.5111 114.908 24.4924H114.74C114.702 24.4924 114.656 24.5018 114.599 24.5205C114.543 24.5205 114.487 24.5392 114.431 24.5766C114.412 24.5579 114.375 24.5485 114.319 24.5485C114.244 24.5485 114.16 24.5859 114.067 24.6607C113.973 24.7355 113.88 24.7916 113.786 24.829C113.786 24.7355 113.749 24.6981 113.674 24.7168C113.618 24.7355 113.562 24.7355 113.506 24.7168C113.468 24.7168 113.393 24.7449 113.281 24.801C113.188 24.8384 113.094 24.8758 113.001 24.9132C112.982 24.8571 112.916 24.8197 112.804 24.801C112.729 24.801 112.664 24.8571 112.608 24.9693C112.552 25.0815 112.299 25.1282 111.851 25.1095C111.888 25.1843 111.907 25.2311 111.907 25.2498C111.925 25.2685 111.907 25.3152 111.851 25.39C111.888 25.4087 111.916 25.4181 111.935 25.4181C111.972 25.4181 112 25.4274 112.019 25.4461C112.019 25.5022 112.047 25.5677 112.103 25.6425C112.178 25.7173 112.225 25.7921 112.243 25.8669C112.281 25.9417 112.299 26.0071 112.299 26.0632C112.318 26.1193 112.327 26.1661 112.327 26.2035C112.327 26.2596 112.299 26.3905 112.243 26.5962C112.168 26.671 112.075 26.8019 111.963 26.9889C111.888 27.0637 111.785 27.1665 111.654 27.2974C111.523 27.4283 111.411 27.5031 111.318 27.5218C111.299 27.5405 111.28 27.5686 111.262 27.606C111.262 27.6247 111.252 27.6527 111.233 27.6901C111.159 27.7462 111.037 27.8304 110.869 27.9426C110.719 28.0361 110.626 28.0828 110.588 28.0828C110.551 28.0828 110.542 28.0828 110.56 28.0828C110.579 28.0641 110.56 28.0548 110.504 28.0548C110.467 28.0548 110.439 28.0641 110.42 28.0828C110.42 28.1015 110.411 28.1202 110.392 28.1389H110.364C110.289 28.1389 110.196 28.1763 110.083 28.2511C109.971 28.3072 109.924 28.3727 109.943 28.4475C109.85 28.4475 109.756 28.4568 109.663 28.4755C109.569 28.4942 109.504 28.5316 109.466 28.5877C109.429 28.6064 109.382 28.6532 109.326 28.728C109.289 28.7841 109.233 28.8308 109.158 28.8682C109.083 28.8869 108.999 28.9056 108.905 28.9243C108.831 28.9243 108.765 28.9337 108.709 28.9524C108.672 28.9711 108.634 28.9898 108.597 29.0085C108.559 29.0272 108.522 29.0552 108.485 29.0926C108.447 29.1113 108.4 29.1207 108.344 29.1207C108.288 29.102 108.232 29.102 108.176 29.1207C108.157 29.1207 108.139 29.1394 108.12 29.1768C108.101 29.1955 108.073 29.2048 108.036 29.2048C107.998 29.2048 107.97 29.1955 107.952 29.1768C107.933 29.1394 107.905 29.1207 107.867 29.1207C107.83 29.1207 107.811 29.1394 107.811 29.1768C107.811 29.2142 107.783 29.2329 107.727 29.2329C107.69 29.2329 107.671 29.2329 107.671 29.2329C107.69 29.2142 107.671 29.2048 107.615 29.2048C107.148 29.2048 106.886 29.1861 106.83 29.1487C106.774 29.1113 106.699 29.0552 106.605 28.9804C106.568 29.0926 106.512 29.1581 106.437 29.1768L106.184 29.2609L105.988 29.3451L105.736 29.4292C105.661 29.4666 105.586 29.504 105.511 29.5414C105.455 29.5601 105.408 29.5788 105.371 29.5975L105.259 29.6817C105.221 29.7191 105.203 29.7471 105.203 29.7658C105.165 29.7845 105.128 29.8687 105.091 30.0183C105.072 30.0931 105.044 30.1585 105.006 30.2146C104.969 30.2707 104.95 30.3455 104.95 30.439C104.95 30.5325 104.988 30.6447 105.062 30.7756C105.1 30.8878 105.147 30.972 105.203 31.028C105.259 31.0841 105.408 31.187 105.652 31.3366C105.689 31.3553 105.754 31.3833 105.848 31.4207C105.941 31.4581 105.997 31.4955 106.016 31.5329C106.072 31.6264 106.119 31.6732 106.156 31.6732C106.156 31.6732 106.184 31.6732 106.241 31.6732C106.278 31.6732 106.315 31.6638 106.353 31.6451C106.39 31.6451 106.418 31.6638 106.437 31.7012C106.549 31.7386 106.661 31.776 106.774 31.8134C106.904 31.8695 107.026 31.9163 107.138 31.9537L107.503 32.0659C108.195 31.7106 108.69 31.4675 108.989 31.3366C109.289 31.2244 109.588 31.1215 109.887 31.028C109.962 30.9907 110.046 30.9533 110.14 30.9159C110.252 30.8785 110.308 30.8878 110.308 30.9439C110.308 30.9813 110.28 31.028 110.224 31.0841C110.168 31.1589 110.093 31.2057 109.999 31.2244C109.756 31.2992 109.513 31.4114 109.27 31.561C109.046 31.7293 108.662 31.9724 108.12 32.2903C109.56 32.87 110.28 33.5993 110.28 34.4782C110.28 34.553 110.27 34.6184 110.252 34.6745C110.252 34.7306 110.242 34.7961 110.224 34.8709C110.205 34.8896 110.14 35.0111 110.027 35.2355C109.934 35.4786 109.887 35.6095 109.887 35.6282C109.794 35.7217 109.7 35.8246 109.607 35.9368C109.513 36.049 109.42 36.1612 109.326 36.2734C109.251 36.3669 109.148 36.4604 109.018 36.5539C108.905 36.6474 108.793 36.7409 108.681 36.8344C108.625 36.9279 108.475 37.0494 108.232 37.199C107.989 37.3673 107.746 37.5263 107.503 37.6759C107.26 37.8255 107.082 37.919 106.97 37.9564L106.381 38.2649C106.325 38.3023 106.25 38.3304 106.156 38.3491C106.063 38.3865 105.979 38.4145 105.904 38.4332C105.848 38.4893 105.782 38.5267 105.708 38.5454C105.652 38.5641 105.577 38.5922 105.483 38.6296C105.446 38.667 105.39 38.695 105.315 38.7137C105.24 38.7324 105.175 38.7511 105.119 38.7698C105.062 38.8259 104.997 38.854 104.922 38.854L104.698 38.9101C104.642 38.9288 104.586 38.9381 104.53 38.9381C104.473 38.9568 104.408 38.9755 104.333 38.9942C103.922 39.0877 103.604 39.1532 103.379 39.1906C103.305 39.2093 103.239 39.2186 103.183 39.2186C103.108 39.2186 103.024 39.2186 102.931 39.2186ZM108.288 28.5316C108.344 28.4381 108.41 28.3914 108.485 28.3914C108.541 28.3914 108.569 28.4007 108.569 28.4194C108.569 28.4381 108.597 28.4475 108.653 28.4475C108.709 28.4475 108.765 28.4288 108.821 28.3914C108.877 28.3353 108.924 28.3072 108.961 28.3072C109.036 28.3072 109.055 28.3166 109.018 28.3353C108.999 28.354 109.027 28.3633 109.102 28.3633C109.158 28.3633 109.279 28.3259 109.466 28.2511C109.653 28.1576 109.794 28.0735 109.887 27.9987C109.981 27.9613 110.13 27.8584 110.336 27.6901C110.542 27.5031 110.691 27.4096 110.785 27.4096C110.841 27.4096 110.878 27.419 110.897 27.4377C110.916 27.4564 110.934 27.4657 110.953 27.4657C110.972 27.3161 111.065 27.1852 111.233 27.073C111.42 26.9421 111.514 26.7645 111.514 26.5401C111.514 26.3531 111.392 26.0819 111.149 25.7266C111.131 25.6892 111.093 25.6705 111.037 25.6705C110.981 25.6518 110.953 25.6331 110.953 25.6144V25.5864C110.953 25.549 110.934 25.5022 110.897 25.4461C110.878 25.3713 110.859 25.3246 110.841 25.3059C110.766 25.2685 110.71 25.2311 110.672 25.1937C110.654 25.1563 110.616 25.1376 110.56 25.1376C110.504 25.1376 110.42 25.1282 110.308 25.1095C110.214 25.0908 110.149 25.0815 110.111 25.0815C110.093 25.0441 110.055 24.9599 109.999 24.829C109.943 24.6981 109.859 24.6327 109.747 24.6327C109.672 24.6327 109.597 24.6794 109.522 24.7729C109.466 24.8477 109.41 24.9132 109.354 24.9693C109.317 24.988 109.251 25.0067 109.158 25.0254C109.083 25.0441 109.036 25.0628 109.018 25.0815C108.905 25.1563 108.774 25.2591 108.625 25.39C108.494 25.5022 108.363 25.5864 108.232 25.6425C108.176 25.7734 108.073 25.8949 107.924 26.0071C107.793 26.1193 107.671 26.2035 107.559 26.2596C107.503 26.3718 107.428 26.484 107.335 26.5962C107.26 26.7084 107.204 26.8206 107.166 26.9328C107.166 26.9515 107.157 26.9702 107.138 26.9889C107.138 26.9889 107.138 27.0076 107.138 27.045C107.138 27.1011 107.138 27.1572 107.138 27.2133C107.157 27.2507 107.129 27.2787 107.054 27.2974V27.7462C107.204 27.8023 107.269 27.9239 107.25 28.1109C107.363 28.0735 107.456 28.0828 107.531 28.1389V28.2792H107.559C107.671 28.2792 107.811 28.3166 107.98 28.3914C108.148 28.4475 108.251 28.4942 108.288 28.5316ZM110.532 30.9159C110.532 30.9159 110.523 30.8878 110.504 30.8317C110.485 30.7756 110.495 30.7476 110.532 30.7476C110.57 30.7663 110.607 30.7756 110.644 30.7756C110.682 30.7756 110.71 30.7756 110.729 30.7756C110.766 30.7756 110.775 30.7663 110.757 30.7476C110.757 30.7289 110.766 30.7195 110.785 30.7195H110.897L110.981 30.6073C111.075 30.6073 111.168 30.5793 111.262 30.5232C111.355 30.4671 111.439 30.4203 111.514 30.3829C111.551 30.3829 111.589 30.3829 111.626 30.3829C111.682 30.3642 111.738 30.3549 111.794 30.3549C111.925 30.3549 112.019 30.3829 112.075 30.439V30.4671C112.075 30.5045 112.01 30.5419 111.879 30.5793C111.766 30.598 111.692 30.626 111.654 30.6634C111.617 30.6634 111.579 30.6728 111.542 30.6915C111.523 30.7102 111.495 30.7289 111.458 30.7476C111.439 30.7663 111.411 30.7756 111.374 30.7756C111.336 30.7569 111.299 30.7569 111.262 30.7756C111.205 30.813 111.112 30.8504 110.981 30.8878C110.869 30.9065 110.794 30.9159 110.757 30.9159C110.719 30.9159 110.691 30.9159 110.672 30.9159C110.672 30.8972 110.626 30.8972 110.532 30.9159ZM103.604 38.5735C103.66 38.5735 103.725 38.5548 103.8 38.5174C103.875 38.48 103.94 38.4613 103.997 38.4613C104.258 38.4239 104.586 38.3771 104.978 38.321C105.371 38.2836 105.745 38.1808 106.1 38.0125C107.091 37.5637 107.793 37.0775 108.204 36.5539C108.615 36.0303 108.831 35.5347 108.849 35.0672C108.868 35.0298 108.887 34.9831 108.905 34.927C108.924 34.8896 108.933 34.8615 108.933 34.8428C108.971 34.7867 108.98 34.7493 108.961 34.7306C108.905 34.6932 108.859 34.6278 108.821 34.5343C108.784 34.4595 108.774 34.3847 108.793 34.3099C108.774 34.2912 108.728 34.2351 108.653 34.1416C108.597 34.0481 108.569 33.9639 108.569 33.8891H108.513C108.4 33.833 108.316 33.7489 108.26 33.6367C107.998 33.3562 107.624 33.0944 107.138 32.8513C106.558 33.2066 105.969 33.5806 105.371 33.9733C104.773 34.366 104.23 34.7774 103.744 35.2075C103.389 35.5067 103.099 35.7965 102.875 36.077C102.65 36.3762 102.482 36.638 102.37 36.8624C102.351 36.8998 102.323 36.9092 102.286 36.8905C102.248 36.8905 102.22 36.9092 102.201 36.9466V37.0027C102.201 37.0401 102.22 37.0868 102.257 37.1429C102.295 37.199 102.304 37.2458 102.286 37.2832C102.267 37.3767 102.248 37.4608 102.229 37.5356C102.211 37.6291 102.201 37.7226 102.201 37.8161C102.201 37.947 102.239 38.0592 102.314 38.1528C102.37 38.2088 102.454 38.2649 102.566 38.321C102.603 38.3397 102.641 38.3584 102.678 38.3771C102.697 38.3958 102.725 38.4145 102.762 38.4332C102.8 38.4519 102.847 38.4519 102.903 38.4332C102.94 38.4332 102.987 38.4332 103.043 38.4332L103.239 38.5174C103.295 38.5174 103.351 38.5267 103.408 38.5454C103.464 38.5829 103.529 38.5922 103.604 38.5735Z" fill="#042159"/>
<path d="M68.0011 23.3424C68.0198 23.492 68.0291 23.6509 68.0291 23.8192C68.0291 23.9688 68.0291 24.1184 68.0291 24.268C68.0291 25.0721 67.9543 25.8669 67.8047 26.6523C67.6551 27.419 67.4214 28.0454 67.1035 28.5316C66.9726 28.7186 66.8043 28.9991 66.5986 29.3731C66.3929 29.7471 66.1872 30.0183 65.9815 30.1866C65.3083 30.7476 64.4948 31.1776 63.5411 31.4768C62.6061 31.7947 61.6431 32.0191 60.652 32.15C59.6609 32.2809 58.7539 32.3464 57.9311 32.3464C57.0709 32.3464 56.2668 32.1687 55.5188 31.8134C54.7895 31.4768 54.0696 31.1122 53.359 30.7195C52.985 31.0748 52.5642 31.3646 52.0967 31.589C51.6479 31.8134 51.1617 31.9256 50.6381 31.9256C50.1145 31.9256 49.6003 31.8882 49.0954 31.8134C48.6092 31.7573 48.2071 31.5984 47.8892 31.3366C47.5713 31.0748 47.4124 30.6728 47.4124 30.1305C47.4124 29.8313 47.59 29.5508 47.9453 29.289C48.3006 29.0085 48.712 28.8028 49.1795 28.6719C49.3291 28.6345 49.4881 28.6064 49.6564 28.5877C49.8247 28.5503 50.021 28.5316 50.2454 28.5316C50.395 28.5316 50.5446 28.541 50.6942 28.5597C50.8438 28.5784 51.0121 28.6158 51.1991 28.6719C51.5357 28.7654 51.863 28.8963 52.1809 29.0646C52.5175 29.2142 52.8447 29.3825 53.1626 29.5695C53.5366 29.1955 53.8639 28.756 54.1444 28.2511C54.4436 27.7462 54.7054 27.2133 54.9298 26.6523C54.2192 26.4466 53.546 26.1006 52.9102 25.6144C52.2744 25.1282 51.7508 24.5579 51.3394 23.9034C50.9467 23.2302 50.7503 22.5383 50.7503 21.8277C50.7503 20.9114 50.9654 19.9951 51.3955 19.0788C51.8256 18.1625 52.3959 17.321 53.1065 16.5543C53.8358 15.7876 54.6493 15.1798 55.5469 14.731C56.4445 14.2635 57.3701 14.0298 58.3238 14.0298C59.7824 14.0298 61.1195 14.2729 62.335 14.759C63.5692 15.2266 64.6257 15.9559 65.5046 16.947C66.4022 17.9194 67.0567 19.1536 67.4681 20.6496C67.5429 20.8927 67.6364 21.2573 67.7486 21.7435C67.8608 22.211 67.945 22.744 68.0011 23.3424ZM66.29 24.1839C66.3087 23.9221 66.3181 23.6696 66.3181 23.4265C66.3368 23.1647 66.3461 22.9123 66.3461 22.6692C66.3461 22.2017 66.3181 21.7716 66.262 21.3789C66.2059 20.9862 66.0937 20.6589 65.9254 20.3971C65.7758 20.154 65.6636 19.9109 65.5888 19.6678C65.514 19.4247 65.4205 19.1536 65.3083 18.8544C65.1961 18.5552 64.9904 18.2186 64.6912 17.8446C64.2798 17.3023 63.8123 16.8722 63.2887 16.5543C62.7838 16.2364 62.3163 15.8998 61.8862 15.5445C61.4748 15.1892 61.0073 14.9461 60.4837 14.8152C59.9601 14.6656 59.3243 14.5908 58.5763 14.5908C57.7535 14.5908 56.9587 14.8152 56.192 15.264C55.444 15.6941 54.7708 16.2738 54.1724 17.0031C53.5927 17.7324 53.1252 18.5271 52.7699 19.3873C52.4333 20.2288 52.265 21.061 52.265 21.8838C52.265 22.4448 52.3492 23.0432 52.5175 23.679C52.6858 24.3148 53.0037 24.8477 53.4712 25.2778C53.6956 25.4835 53.948 25.6518 54.2285 25.7827C54.5277 25.9136 54.8269 26.0165 55.1261 26.0913C55.2757 25.6612 55.4066 25.2404 55.5188 24.829C55.631 24.3989 55.7339 23.9969 55.8274 23.6229C55.9957 23.0058 56.2668 22.2765 56.6408 21.435C57.0335 20.5748 57.473 19.7987 57.9592 19.1068C57.8844 19.0881 57.8096 19.0788 57.7348 19.0788C57.66 19.0601 57.5852 19.0507 57.5104 19.0507C57.2673 19.0507 57.0242 19.0881 56.7811 19.1629C56.538 19.2377 56.2855 19.3312 56.0237 19.4434C55.7993 19.5556 55.6123 19.7613 55.4627 20.0605C55.3318 20.341 55.2103 20.6122 55.0981 20.874C55.0046 21.1358 54.8924 21.2667 54.7615 21.2667C54.7054 21.2667 54.6306 21.2199 54.5371 21.1264C54.4062 20.9768 54.3407 20.7898 54.3407 20.5654C54.3407 20.3971 54.3781 20.2288 54.4529 20.0605C54.5464 19.8735 54.6493 19.6959 54.7615 19.5276C54.9672 19.2097 55.2103 18.9946 55.4908 18.8824C55.7713 18.7702 56.0892 18.6674 56.4445 18.5739C56.725 18.5178 57.0242 18.4897 57.3421 18.4897C57.6787 18.4897 58.0153 18.5178 58.3519 18.5739C58.6698 18.1999 58.997 17.8913 59.3336 17.6482C59.6702 17.4051 59.9881 17.2836 60.2873 17.2836C60.6613 17.2836 60.9792 17.4425 61.241 17.7604C61.3532 17.8726 61.4093 18.0035 61.4093 18.1531C61.4093 18.284 61.3532 18.3495 61.241 18.3495C61.1475 18.3495 61.0447 18.284 60.9325 18.1531C60.7268 17.9474 60.5117 17.8446 60.2873 17.8446C60.0816 17.8446 59.8666 17.9287 59.6422 18.097C59.4178 18.2653 59.2027 18.4897 58.997 18.7702C59.4271 18.9198 59.717 19.0881 59.8666 19.2751C60.278 19.7426 60.5865 20.2288 60.7922 20.7337C61.0166 21.2199 61.1288 21.7342 61.1288 22.2765C61.1288 22.7253 61.0447 23.2208 60.8764 23.7631C60.2219 25.8201 58.623 26.8486 56.0798 26.8486C56.0237 26.8486 55.9676 26.8486 55.9115 26.8486C55.8554 26.8299 55.7993 26.8206 55.7432 26.8206C55.5188 27.4003 55.257 27.9706 54.9578 28.5316C54.6773 29.0739 54.3501 29.5788 53.9761 30.0463C54.5745 30.4016 55.1916 30.7195 55.8274 31C56.4819 31.2805 57.1831 31.4207 57.9311 31.4207C59.2588 31.4207 60.493 31.1496 61.6337 30.6073C62.7744 30.0463 63.8123 29.3825 64.7473 28.6158C65.2896 28.167 65.6729 27.5499 65.8973 26.7645C66.1217 25.9604 66.2526 25.1002 66.29 24.1839ZM60.0068 23.5668C60.119 23.1928 60.1751 22.8375 60.1751 22.5009C60.1751 21.9586 60.0629 21.4443 59.8385 20.9581C59.6328 20.4719 59.3804 20.0792 59.0812 19.78C58.9129 19.6117 58.7446 19.4715 58.5763 19.3593C58.1649 20.0512 57.7909 20.8366 57.4543 21.7155C57.1364 22.5757 56.9026 23.2863 56.753 23.8472C56.6595 24.2026 56.5473 24.5859 56.4164 24.9973C56.2855 25.4087 56.1359 25.8295 55.9676 26.2596C56.0611 26.2596 56.1546 26.2689 56.2481 26.2876C56.3416 26.2876 56.4258 26.2876 56.5006 26.2876C57.5478 26.2876 58.3332 26.0352 58.8568 25.5303C59.3804 25.0254 59.7637 24.3709 60.0068 23.5668ZM52.3211 30.1585C51.8723 29.9341 51.3955 29.7378 50.8906 29.5695C50.4979 29.4573 50.1987 29.4012 49.993 29.4012C49.7686 29.4012 49.6283 29.4666 49.5722 29.5975C49.5348 29.7097 49.5161 29.85 49.5161 30.0183C49.5161 30.2801 49.5348 30.4577 49.5722 30.5512C49.6283 30.6447 49.7031 30.6915 49.7966 30.6915C49.9088 30.6915 50.0584 30.6634 50.2454 30.6073C50.4511 30.5325 50.6849 30.4951 50.9467 30.4951C51.2085 30.4951 51.4516 30.4671 51.676 30.411C51.9191 30.3362 52.1341 30.252 52.3211 30.1585Z" fill="#042159"/>
<path d="M69.3621 31.7756C69.0255 31.7756 68.7824 31.6354 68.6328 31.3549C68.4832 31.0557 68.4084 30.7097 68.4084 30.317C68.4084 29.8121 68.4926 29.2231 68.6609 28.5499C68.8479 27.8767 69.091 27.1848 69.3902 26.4742C69.6894 25.7449 70.026 25.081 70.4 24.4826C70.7927 23.8655 71.2041 23.37 71.6342 22.996C72.0643 22.6033 72.485 22.4069 72.8964 22.4069C73.2704 22.4069 73.5883 22.5752 73.8501 22.9118C74.1306 23.2297 74.2709 23.5944 74.2709 24.0058C74.2709 24.2489 74.2335 24.4546 74.1587 24.6229C74.0839 24.7725 73.9997 24.8472 73.9062 24.8472C73.8314 24.8472 73.766 24.7912 73.7099 24.679C73.5229 24.2489 73.3172 23.9403 73.0928 23.7533C72.8871 23.5663 72.672 23.4728 72.4476 23.4728C72.0736 23.4728 71.6996 23.6879 71.3256 24.118C70.9703 24.5294 70.6805 25.0062 70.4561 25.5485C70.2691 25.9599 70.0914 26.4555 69.9231 27.0352C69.7735 27.5962 69.6426 28.1572 69.5304 28.7182C69.4369 29.2605 69.3902 29.7093 69.3902 30.0646C69.3902 30.7004 69.5398 31.0183 69.839 31.0183C70.213 31.0183 70.6898 30.6069 71.2695 29.7841C71.6996 29.1857 72.083 28.4938 72.4196 27.7084C72.7749 26.923 73.0741 26.2404 73.3172 25.6607C73.4107 25.4737 73.5135 25.3522 73.6257 25.2961C73.7379 25.24 73.8408 25.2119 73.9343 25.2119C74.1587 25.2119 74.2989 25.3054 74.355 25.4924C74.4298 25.6794 74.4672 25.8384 74.4672 25.9693C74.4672 26.4555 74.4205 26.8949 74.327 27.2876C74.2335 27.6616 74.1867 28.1198 74.1867 28.6621C74.1867 29.0548 74.2148 29.4194 74.2709 29.756C74.3457 30.0739 74.4672 30.2329 74.6355 30.2329C74.8412 30.2329 75.103 29.9711 75.4209 29.4475C75.4957 29.2979 75.6079 29.2231 75.7575 29.2231C75.9258 29.2231 76.01 29.3072 76.01 29.4755C76.01 29.7186 75.8417 29.9804 75.5051 30.2609C75.1685 30.5227 74.8319 30.6536 74.4953 30.6536C74.0465 30.6536 73.7286 30.4666 73.5416 30.0926C73.2237 29.4755 73.0647 28.9239 73.0647 28.4377C73.0647 27.9328 73.0554 27.5868 73.0367 27.3998C72.9432 27.6242 72.7655 27.9795 72.5037 28.4657C72.2419 28.9332 71.9334 29.4288 71.5781 29.9524C71.2228 30.4573 70.8488 30.8874 70.4561 31.2427C70.0634 31.598 69.6987 31.7756 69.3621 31.7756ZM79.4796 33.4025C78.8812 33.4025 78.4231 33.122 78.1052 32.561C77.7873 32.0187 77.6283 31.4203 77.6283 30.7658C77.6283 30.1487 77.7312 29.5036 77.9369 28.8304C78.1426 28.1572 78.395 27.4933 78.6942 26.8388C79.0121 26.1843 79.3394 25.5859 79.676 25.0436C79.3394 25.1745 79.0215 25.24 78.7223 25.24C78.5727 25.24 78.4418 25.2213 78.3296 25.1839C78.2174 25.1465 78.1239 25.1184 78.0491 25.0997C77.9556 25.3241 77.7873 25.6981 77.5442 26.2217C77.3198 26.7453 77.0767 27.297 76.8149 27.8767C76.5718 28.4377 76.3567 28.9145 76.1697 29.3072C75.8705 29.943 75.6087 30.2609 75.3843 30.2609C75.2721 30.2609 75.216 30.1861 75.216 30.0365C75.216 29.9243 75.2628 29.7747 75.3563 29.5877C75.7864 28.7836 76.1884 27.9889 76.5624 27.2035C76.9551 26.4181 77.3104 25.6607 77.6283 24.9314C77.5909 24.8379 77.5535 24.7164 77.5161 24.5668C77.4787 24.3985 77.46 24.2208 77.46 24.0338C77.46 23.8281 77.4787 23.6131 77.5161 23.3887C77.5722 23.1456 77.647 22.9118 77.7405 22.6874C77.7966 22.5565 77.8995 22.3695 78.0491 22.1264C78.1987 21.8646 78.367 21.6309 78.554 21.4252C78.741 21.2008 78.9186 21.0886 79.0869 21.0886C79.4048 21.0886 79.5638 21.2569 79.5638 21.5935C79.5638 21.9114 79.4609 22.276 79.2552 22.6874C79.0682 23.0988 78.8719 23.4822 78.6662 23.8375C78.4605 24.1741 78.3576 24.4265 78.3576 24.5948C78.3576 24.7444 78.4324 24.8192 78.582 24.8192C78.7877 24.8192 79.0402 24.7164 79.3394 24.5107C79.6573 24.2863 79.9097 24.0806 80.0967 23.8936C80.1902 23.8001 80.3398 23.6598 80.5455 23.4728C80.7512 23.2671 80.9476 23.1643 81.1346 23.1643C81.3216 23.1643 81.4431 23.2204 81.4992 23.3326C81.574 23.4448 81.6114 23.5757 81.6114 23.7253C81.6114 23.8936 81.5366 24.1086 81.387 24.3704C81.2374 24.6135 81.0598 24.8566 80.8541 25.0997C80.6671 25.3428 80.5081 25.5485 80.3772 25.7168C80.1154 26.1095 79.8162 26.6051 79.4796 27.2035C79.143 27.8019 78.8532 28.447 78.6101 29.1389C78.367 29.8121 78.2454 30.4573 78.2454 31.0744C78.2454 31.4858 78.3483 31.9158 78.554 32.3646C78.7597 32.8134 79.0402 33.0378 79.3955 33.0378C79.7134 33.0378 80.05 32.8695 80.4053 32.5329C80.7793 32.1963 81.1252 31.7943 81.4431 31.3268C81.7797 30.8593 82.0696 30.4105 82.3127 29.9804C82.5745 29.5503 82.7521 29.2511 82.8456 29.0828C82.883 28.9893 82.9485 28.8771 83.042 28.7462C83.1355 28.5966 83.2477 28.5218 83.3786 28.5218C83.4908 28.5218 83.5469 28.5779 83.5469 28.6901C83.5469 28.7836 83.5188 28.8958 83.4627 29.0267C83.4253 29.1389 83.3879 29.2418 83.3505 29.3353C83.1822 29.728 82.9765 30.1394 82.7334 30.5695C82.4903 30.9996 82.322 31.2894 82.2285 31.439C81.9667 31.8691 81.574 32.2992 81.0504 32.7293C80.5455 33.1781 80.0219 33.4025 79.4796 33.4025Z" fill="#042159"/>
<path d="M22.732 18.8566C21.7471 18.8566 20.8869 19.5111 20.1514 20.8201C19.4283 22.1167 19.0668 23.4942 19.0668 24.9528C19.0668 26.399 19.285 27.5708 19.7213 28.4684C20.1576 29.366 20.7934 29.8148 21.6287 29.8148C22.3144 29.8148 22.9128 29.5032 23.4239 28.8798C24.4212 27.6581 24.9199 25.8878 24.9199 23.569C24.9199 21.9359 24.7142 20.7453 24.3028 19.9973C23.8914 19.2369 23.3678 18.8566 22.732 18.8566ZM23.7979 17.7159C24.7952 17.7159 25.5619 18.1772 26.098 19.0997C26.6465 20.0223 26.9208 21.2066 26.9208 22.6527C26.9208 24.7721 26.472 26.6608 25.5744 28.3188C25.1381 29.1541 24.5397 29.8273 23.7792 30.3384C23.0312 30.8496 22.1398 31.1051 21.1051 31.1051C20.0704 31.1051 19.1478 30.5878 18.3375 29.553C17.5272 28.5183 17.122 27.0348 17.122 25.1024C17.122 23.1576 17.5147 21.4871 18.3001 20.0908C19.098 18.6821 20.1514 17.7845 21.4604 17.398C21.7596 17.398 21.9217 17.6598 21.9466 18.1834C22.6198 17.8718 23.2369 17.7159 23.7979 17.7159ZM31.6623 22.26C31.014 22.26 30.5029 22.073 30.1289 21.699C29.7549 21.3126 29.5679 20.8513 29.5679 20.3152C29.5679 19.5049 29.9045 18.7881 30.5777 18.1647C31.2633 17.5414 32.1983 17.2297 33.3827 17.2297C34.5795 17.2297 35.5706 17.5289 36.356 18.1273C37.1538 18.7133 37.5528 19.6171 37.5528 20.8388C37.5528 22.0481 36.998 23.3945 35.8885 24.878C34.7789 26.3491 33.2019 27.7329 31.1574 29.0294H31.6623C34.5296 29.0294 36.4682 28.83 37.478 28.431C37.4281 29.2538 37.1975 29.8959 36.7861 30.3571C36.3871 30.8059 35.876 31.0303 35.2527 31.0303C35.0781 31.0303 34.4922 30.9742 33.4949 30.862C32.4975 30.7498 31.494 30.6937 30.4842 30.6937C29.4744 30.6937 28.5331 30.8184 27.6605 31.0677C27.6605 30.7935 27.754 30.5192 27.941 30.2449C28.2776 29.7463 28.7388 29.3972 29.3248 29.1977C29.8359 28.7614 30.185 28.4622 30.372 28.3001C30.5714 28.1381 30.9392 27.8139 31.4753 27.3277C32.0113 26.8291 32.4103 26.4364 32.6721 26.1496C32.9339 25.8504 33.2705 25.4515 33.6819 24.9528C34.1057 24.4542 34.4174 24.0054 34.6169 23.6064C35.1654 22.5717 35.4397 21.6803 35.4397 20.9323C35.4397 20.1719 35.2402 19.5859 34.8413 19.1745C34.4423 18.7631 33.9686 18.5574 33.4201 18.5574C32.884 18.5574 32.4352 18.7257 32.0737 19.0623C31.7121 19.3865 31.5314 19.854 31.5314 20.4648C31.5314 21.0757 31.7682 21.6554 32.242 22.2039C32.055 22.2413 31.8617 22.26 31.6623 22.26ZM43.9732 20.8014C43.5618 20.8014 43.1878 20.9323 42.8512 21.1941C42.527 21.4559 42.365 21.8175 42.365 22.2787C42.365 22.7275 42.5146 23.1514 42.8138 23.5503C43.1254 23.9493 43.4994 24.3046 43.9358 24.6162C44.3721 24.9279 44.8147 25.2458 45.2635 25.5699C46.3107 26.3429 46.8343 27.1719 46.8343 28.057C46.8343 28.9422 46.479 29.6652 45.7684 30.2262C45.0578 30.7748 44.1477 31.049 43.0382 31.049C41.9411 31.049 41.0871 30.8309 40.4763 30.3945C39.8779 29.9582 39.5787 29.4471 39.5787 28.8611C39.5787 28.2627 39.7283 27.7952 40.0275 27.4586C40.3267 27.122 40.6882 26.9537 41.1121 26.9537C41.3365 26.9537 41.5484 27.0036 41.7479 27.1033C41.4736 27.4524 41.3365 27.8638 41.3365 28.3375C41.3365 28.8113 41.4798 29.2102 41.7666 29.5343C42.0658 29.8585 42.4709 30.0205 42.9821 30.0205C43.5057 30.0205 43.9482 29.8896 44.3098 29.6278C44.6713 29.3536 44.8521 29.0107 44.8521 28.5993C44.8521 28.1879 44.7461 27.8264 44.5342 27.5147C44.3222 27.2031 44.0542 26.935 43.7301 26.7106C43.4184 26.4862 43.0756 26.2369 42.7016 25.9626C42.3276 25.6884 41.9785 25.4203 41.6544 25.1585C41.3427 24.8843 41.0809 24.5477 40.869 24.1487C40.657 23.7373 40.5511 23.2885 40.5511 22.8023C40.5511 21.9172 40.8877 21.1941 41.5609 20.6331C42.2341 20.0597 43.0818 19.7729 44.1041 19.7729C45.1263 19.7729 45.8743 19.9849 46.3481 20.4087C46.8218 20.8326 47.0587 21.3126 47.0587 21.8486C47.0587 22.3722 46.9278 22.8086 46.666 23.1576C46.4042 23.4942 46.0676 23.6625 45.6562 23.6625C45.4567 23.6625 45.2261 23.6064 44.9643 23.4942C45.2884 23.0953 45.4505 22.6652 45.4505 22.2039C45.4505 21.7427 45.3071 21.3936 45.0204 21.1567C44.7461 20.9199 44.397 20.8014 43.9732 20.8014Z" fill="#042159"/>
<rect x="33" width="2" height="12" fill="#32E6E2"/>
<rect x="4" y="27" width="2" height="12" transform="rotate(-90 4 27)" fill="#32E6E2"/>
<rect x="20" y="8.14716" width="2" height="6" transform="rotate(-35 20 8.14716)" fill="#32E6E2"/>
<rect x="19.5267" y="41.5228" width="2" height="6" transform="rotate(-135 19.5267 41.5228)" fill="#32E6E2"/>
<rect x="114" y="27" width="2" height="12" transform="rotate(-90 114 27)" fill="#32E6E2"/>
<rect x="33" y="38" width="2" height="12" fill="#32E6E2"/>
</g>
<defs>
<filter id="filter0_d_1_2" x="0" y="0" width="130" height="58" filterUnits="userSpaceOnUse" color-interpolation-filters="sRGB">
<feFlood flood-opacity="0" result="BackgroundImageFix"/>
<feColorMatrix in="SourceAlpha" type="matrix" values="0 0 0 0 0 0 0 0 0 0 0 0 0 0 0 0 0 0 127 0" result="hardAlpha"/>
<feOffset dy="4"/>
<feGaussianBlur stdDeviation="2"/>
<feComposite in2="hardAlpha" operator="out"/>
<feColorMatrix type="matrix" values="0 0 0 0 0 0 0 0 0 0 0 0 0 0 0 0 0 0 0.25 0"/>
<feBlend mode="normal" in2="BackgroundImageFix" result="effect1_dropShadow_1_2"/>
<feBlend mode="normal" in="SourceGraphic" in2="effect1_dropShadow_1_2" result="shape"/>
</filter>
<clipPath id="clip0_1_2">
<rect width="122" height="50" fill="white" transform="translate(4)"/>
</clipPath>
</defs>
</svg>
